<svg width="96.000000" height="115.000000" viewBox="0 0 96 115" fill="none" xmlns="http://www.w3.org/2000/svg" xmlns:xlink="http://www.w3.org/1999/xlink">
	<desc>
			Created with Pixso.
	</desc>
	<defs/>
	<path id="&lt;Compound Path&gt;" d="M92.66 36.11C93.54 35.23 94.03 34.04 94.03 32.8C94.03 31.56 93.54 30.37 92.66 29.49L89.1 25.93C88.22 25.05 87.03 24.55 85.78 24.55C84.54 24.55 83.35 25.05 82.47 25.93L78.11 30.31C71.41 24.67 63.26 21 54.59 19.72L54.59 14.52L57.08 14.52C58.34 14.5 59.55 13.99 60.44 13.1C61.33 12.21 61.84 11 61.86 9.74L61.86 4.7C61.86 2.13 59.66 0 57.08 0L38.06 0C35.48 0 33.28 2.13 33.28 4.7L33.28 9.74C33.3 11 33.81 12.2 34.7 13.09C35.59 13.99 36.8 14.5 38.06 14.52L40.54 14.52L40.54 19.72C17.59 23.09 0 42.91 0 66.75C0 92.96 21.33 114.28 47.55 114.28C73.76 114.28 95.09 92.96 95.09 66.75C95.11 57.68 92.51 48.8 87.6 41.17L92.66 36.11ZM85.77 29.25L89.33 32.81L84.86 37.29C83.81 35.97 82.7 34.71 81.51 33.49L85.77 29.25ZM37.97 9.83L37.97 4.68L57.17 4.68L57.17 9.83L37.97 9.83ZM45.23 14.52L49.91 14.52L49.91 19.27C48.97 19.23 48.32 19.23 47.57 19.23C46.82 19.23 46.16 19.25 45.23 19.27L45.23 14.52ZM47.57 109.59C23.93 109.59 4.73 90.36 4.73 66.75C4.73 43.14 23.93 23.89 47.57 23.89C71.2 23.89 90.41 43.12 90.41 66.75C90.41 90.39 71.2 109.59 47.57 109.59Z" fill="#1D3484" fill-opacity="1.000000" fill-rule="nonzero"/>
	<path id="&lt;Compound Path&gt;" d="M47.57 28.57L47.12 28.57C26.56 28.81 9.86 45.39 9.41 65.91C9.24 66.24 9.16 66.6 9.15 66.96C9.15 67.35 9.25 67.73 9.43 68.06C10.14 88.3 26.67 104.61 47.01 104.89C47.11 104.91 47.22 104.91 47.33 104.91C47.43 104.91 47.52 104.91 47.61 104.89C68.65 104.89 85.75 87.79 85.75 66.75C85.75 45.69 68.63 28.57 47.57 28.57ZM49.68 100.15L49.68 95.8C49.68 95.18 49.43 94.58 48.99 94.14C48.55 93.7 47.96 93.46 47.33 93.46C46.71 93.46 46.12 93.7 45.68 94.14C45.24 94.58 44.99 95.18 44.99 95.8L44.99 100.13C28.57 98.87 15.43 85.75 14.19 69.33L18.29 69.33C18.91 69.33 19.5 69.08 19.94 68.64C20.38 68.2 20.63 67.61 20.63 66.99C20.63 66.37 20.38 65.77 19.94 65.33C19.5 64.89 18.91 64.64 18.29 64.64L14.14 64.64C14.66 56.59 18.06 48.99 23.73 43.24C29.4 37.49 36.94 33.98 44.99 33.35L44.99 37.71C44.99 38.33 45.24 38.92 45.68 39.36C46.12 39.8 46.71 40.05 47.33 40.05C47.96 40.05 48.55 39.8 48.99 39.36C49.43 38.92 49.68 38.33 49.68 37.71L49.68 33.33C57.81 33.85 65.47 37.32 71.24 43.08C77 48.85 80.47 56.51 80.99 64.64L76.38 64.64C75.76 64.64 75.16 64.89 74.72 65.33C74.28 65.77 74.04 66.37 74.04 66.99C74.04 67.61 74.28 68.2 74.72 68.64C75.16 69.08 75.76 69.33 76.38 69.33L80.95 69.33C79.68 85.89 66.31 99.12 49.68 100.15Z" fill="#1D3484" fill-opacity="1.000000" fill-rule="nonzero"/>
	<path id="&lt;Path&gt;" d="M60.9 64.88L49.91 64.88L49.91 49.39C49.91 48.77 49.66 48.18 49.23 47.74C48.79 47.3 48.19 47.05 47.57 47.05C46.95 47.05 46.35 47.3 45.91 47.74C45.47 48.18 45.23 48.77 45.23 49.39L45.23 67.24C45.22 67.55 45.27 67.85 45.39 68.13C45.5 68.41 45.66 68.67 45.87 68.88C46.08 69.1 46.34 69.27 46.62 69.39C46.9 69.5 47.2 69.56 47.5 69.56L60.87 69.56C61.5 69.57 62.09 69.32 62.53 68.89C62.97 68.45 63.22 67.85 63.23 67.23C63.23 66.61 62.99 66.01 62.55 65.57C62.11 65.13 61.52 64.88 60.9 64.88Z" fill="#1D3484" fill-opacity="1.000000" fill-rule="nonzero"/>
</svg>
