<svg width="130.000000" height="130.000000" viewBox="0 0 130 130" fill="none" xmlns="http://www.w3.org/2000/svg" xmlns:xlink="http://www.w3.org/1999/xlink">
	<desc>
			Created with Pixso.
	</desc>
	<defs>
		<clipPath id="clip1142_501">
			<rect id="Handshake" width="130.000000" height="130.000000" fill="white" fill-opacity="0"/>
		</clipPath>
	</defs>
	<rect id="Handshake" width="130.000000" height="130.000000" fill="#FFFFFF" fill-opacity="0"/>
	<g clip-path="url(#clip1142_501)">
		<path id="Vector" d="M109.68 68.11L93.43 37L106.11 30.66C107.07 30.18 108.17 30.1 109.18 30.42C110.19 30.75 111.04 31.46 111.53 32.41L124.02 56.33C124.27 56.8 124.42 57.33 124.47 57.86C124.51 58.4 124.45 58.94 124.28 59.46C124.12 59.97 123.85 60.44 123.5 60.85C123.15 61.26 122.72 61.6 122.24 61.84L109.68 68.11L101.56 77.62L82.87 96.31C82.38 96.8 81.76 97.16 81.08 97.35C80.41 97.54 79.69 97.54 79.01 97.37L49.58 90.02C49.03 89.88 48.51 89.63 48.07 89.28L20.31 67.57L7.76 61.29C7.27 61.05 6.84 60.72 6.49 60.31C6.14 59.9 5.87 59.43 5.71 58.91C5.54 58.4 5.48 57.86 5.52 57.32C5.57 56.78 5.72 56.26 5.97 55.78L18.46 31.86C18.95 30.92 19.8 30.21 20.81 29.88C21.83 29.55 22.93 29.63 23.88 30.11L36.56 36.45L20.31 " stroke="#1D3484" stroke-opacity="1.000000" stroke-width="6.093750" stroke-linejoin="round"/>
		<path id="Vector" d="M101.56 77.62L79.21 61.37L72.71 66.25C69.9 68.35 66.48 69.5 62.96 69.5C59.45 69.5 56.03 68.35 53.21 66.25L50.46 64.18C50 63.83 49.61 63.39 49.33 62.87C49.05 62.36 48.89 61.8 48.85 61.22C48.81 60.64 48.89 60.06 49.09 59.51C49.3 58.96 49.61 58.47 50.03 58.06L69.9 38.18C70.28 37.81 70.73 37.51 71.22 37.3C71.71 37.1 72.24 37 72.77 37L93.43 " stroke="#1D3484" stroke-opacity="1.000000" stroke-width="6.093750" stroke-linejoin="round" stroke-linecap="round"/>
		<path id="Vector" d="M36.85 36.45L62.91 28.85C63.84 28.58 64.84 28.65 65.72 29.05L83.28 36.99M56.87 108.09L41.57 104.26C40.94 104.11 40.37 103.81 39.89 103.39L28.43 " stroke="#1D3484" stroke-opacity="1.000000" stroke-width="6.093750" stroke-linejoin="round"/>
	</g>
</svg>
