<svg width="128.000000" height="60.000000" viewBox="0 0 128 60" fill="none" xmlns="http://www.w3.org/2000/svg" xmlns:xlink="http://www.w3.org/1999/xlink">
	<desc>
			Created with Pixso.
	</desc>
	<defs>
		<filter id="filter_79_500_dd" x="0.205078" y="4.666992" width="48.115234" height="52.161621" filterUnits="userSpaceOnUse" color-interpolation-filters="sRGB">
			<feFlood flood-opacity="0" result="BackgroundImageFix"/>
			<feColorMatrix in="SourceAlpha" type="matrix" values="0 0 0 0 0 0 0 0 0 0 0 0 0 0 0 0 0 0 127 0" result="hardAlpha"/>
			<feOffset dx="0" dy="0.300562"/>
			<feGaussianBlur stdDeviation="0.150281"/>
			<feComposite in2="hardAlpha" operator="out" k2="-1" k3="1"/>
			<feColorMatrix type="matrix" values="0 0 0 0 0 0 0 0 0 0 0 0 0 0 0 0 0 0 1 0"/>
			<feBlend mode="normal" in2="BackgroundImageFix" result="effect_dropShadow_1"/>
			<feBlend mode="normal" in="SourceGraphic" in2="effect_dropShadow_1" result="shape"/>
		</filter>
		<clipPath id="clip79_503">
			<rect id="Group 111" width="128.000000" height="60.000000" fill="white" fill-opacity="0"/>
		</clipPath>
	</defs>
	<g clip-path="url(#clip79_503)">
		<g filter="url(#filter_79_500_dd)">
			<path id="path" d="M43.97 15.42L25.69 6.66C25.69 6.66 24.98 6.22 24.46 6.18C23.82 6.13 22.89 6.66 22.89 6.66L8.07 14.19C8.07 14.19 7.1 15.45 7.11 16.39C7.12 17.3 8.06 18.52 8.06 18.52L24.42 27.42L25.65 27.76L26.95 27.42L42.66 19.68C42.66 19.68 43.86 19.44 44.57 19.69C45.42 19.99 46.27 21.27 46.27 21.27L46.5 44.99C46.5 44.99 46.47 45.76 46.23 46.15C45.94 46.61 45.13 46.98 45.13 46.98L29.77 54.58C29.77 54.58 28.51 54.84 27.79 54.58C26.85 54.23 26.02 52.72 26.02 52.72L25.64 33.61L25.17 32.03L23.6 30.99L5.6 22.02C5.6 22.02 4.12 21.85 3.35 22.29C2.66 22.69 2.05 23.87 2.05 23.87L2.01 43.81C2.01 43.81 2.21 44.65 2.56 45.04C2.89 45.43 3.65 45.73 3.65 45.73L22.76 " stroke="#1D3485" stroke-opacity="1.000000" stroke-width="2.725820"/>
		</g>
		<path id="path" d="M55.88 8.97L67.07 8.99L67.06 13.73L61.22 13.72L61.2 26.01L55.85 26L55.88 8.97ZM69.01 8.99L74.37 9L74.33 26.03L68.98 26.02L69.01 8.99ZM72.46 13.25L72.47 9L75.7 9C77.38 9.01 78.73 9.24 79.77 9.72C80.82 10.19 81.59 10.86 82.08 11.74C82.58 12.6 82.83 13.64 82.82 14.85C82.82 16.06 82.57 17.09 82.06 17.97C81.58 18.84 80.8 19.51 79.75 19.98C78.71 20.45 77.35 20.68 75.68 20.68L72.45 20.68L72.45 16.42L75.69 16.42C76.36 16.42 76.86 16.29 77.2 16.01C77.54 15.74 77.71 15.35 77.71 14.85C77.71 14.34 77.54 13.95 77.2 13.68C76.86 13.4 76.36 13.26 75.7 13.26L72.46 13.25ZM99.01 9.04L90.97 26.06L85.62 26.05L87.99 20.78L82.46 9.01L88.3 9.02L91.45 18.4L89.38 18.39L93.53 9.03L99.01 9.04ZM106.37 17.94L106.38 15.77C107.11 15.77 107.71 15.71 108.18 15.58C108.67 15.45 109.02 15.27 109.25 15.02C109.48 14.76 109.59 14.47 109.59 14.15C109.59 13.89 109.51 13.66 109.35 13.47C109.2 13.27 108.98 13.12 108.67 13C108.38 12.89 108.01 12.83 107.57 12.83C107.05 12.83 106.62 12.9 106.26 13.05C105.92 13.18 105.66 13.37 105.48 13.63C105.32 13.87 105.24 14.16 105.24 14.51L100.35 14.5C100.35 13.41 100.62 12.43 101.15 11.55C101.69 10.68 102.49 9.98 103.57 9.47C104.64 8.95 105.98 8.69 107.6 8.69C109.23 8.7 110.57 8.91 111.64 9.33C112.71 9.76 113.52 10.33 114.05 11.07C114.58 11.8 114.85 12.62 114.85 13.55C114.85 14.36 114.62 15.05 114.16 15.62C113.71 16.18 113.08 16.64 112.29 16.98C111.51 17.31 110.61 17.56 109.59 17.73C108.56 17.87 107.49 17.94 106.37 17.94ZM107.82 26.58C106.36 26.58 105.11 26.39 104.07 26.04C103.03 25.68 102.18 25.19 101.52 24.57C100.85 23.95 100.37 23.26 100.06 22.5C99.75 21.72 99.6 20.93 99.6 20.12L104.86 20.12C104.86 20.69 104.99 21.15 105.25 21.49C105.52 21.83 105.87 22.07 106.29 22.22C106.71 22.37 107.14 22.44 107.58 22.44C108.25 22.44 108.82 22.34 109.31 22.13C109.81 21.9 110.06 21.48 110.07 20.86C110.07 20.52 109.96 20.21 109.75 19.91C109.54 19.62 109.17 19.39 108.63 19.21C108.1 19.01 107.35 18.91 106.37 18.91L106.38 16.38C108.13 16.38 109.68 16.56 111.02 16.9C112.37 17.24 113.42 17.78 114.18 18.51C114.94 19.24 115.32 20.19 115.32 21.36C115.32 22.37 115.05 23.27 114.51 24.06C113.98 24.84 113.15 25.45 112.03 25.9C110.92 26.36 109.52 26.58 107.82 26.58Z" fill="#1D3485" fill-opacity="1.000000" fill-rule="nonzero"/>
		<path id="path" d="M81.35 49.57L74.89 49.56L74.91 36.73L70.13 49.55L67.25 49.55L62.5 36.71L62.48 49.54L56.02 49.53L56.05 28.19L64.98 28.21L68.71 38.45L72.47 28.22L81.39 28.23L81.35 49.57ZM105.55 49.62L97.94 49.6L94.05 43.07L90.13 49.59L82.52 49.58L89.67 38.65L83.04 28.24L90.62 28.25L94.06 34.34L97.47 28.26L105.11 28.28L98.44 38.63L105.55 49.62ZM127.01 49.66L119.14 49.64L114.35 42.12L113.17 43.71L113.16 49.63L106.69 49.62L106.73 28.28L113.19 28.29L113.18 36.29L118.79 28.3L126.69 28.32L118.61 38.22L127.01 49.66Z" fill="#1D3485" fill-opacity="1.000000" fill-rule="nonzero"/>
	</g>
</svg>
