<svg width="24.000000" height="24.000000" viewBox="0 0 24 24" fill="none" xmlns="http://www.w3.org/2000/svg" xmlns:xlink="http://www.w3.org/1999/xlink">
	<desc>
			Created with Pixso.
	</desc>
	<defs>
		<clipPath id="clip9_50">
			<rect id="map-pin" width="24.000000" height="24.000000" transform="translate(0.000000 -0.500000)" fill="white" fill-opacity="0"/>
		</clipPath>
	</defs>
	<rect id="map-pin" width="24.000000" height="24.000000" transform="translate(0.000000 -0.500000)" fill="#FFFFFF" fill-opacity="0"/>
	<g clip-path="url(#clip9_50)">
		<path id="Vector" d="M12 22.5C12 22.5 3 16.5 3 9.5C3 7.11 3.94 4.82 5.63 3.13C7.32 1.44 9.61 0.5 12 0.5C14.38 0.5 16.67 1.44 18.36 3.13C20.05 4.82 21 7.11 21 9.5C21 16.5 12 22.5 12 22.5Z" stroke="#DDDDDD" stroke-opacity="1.000000" stroke-width="2.000000" stroke-linejoin="round"/>
		<path id="Vector" d="M12 12.5C10.34 12.5 9 11.15 9 9.5C9 7.84 10.34 6.5 12 6.5C13.65 6.5 15 7.84 15 9.5C15 11.15 13.65 12.5 12 12.5Z" stroke="#DDDDDD" stroke-opacity="1.000000" stroke-width="2.000000" stroke-linejoin="round"/>
	</g>
</svg>
