<svg width="135.000000" height="110.000000" viewBox="0 0 135 110" fill="none" xmlns="http://www.w3.org/2000/svg" xmlns:xlink="http://www.w3.org/1999/xlink">
	<desc>
			Created with Pixso.
	</desc>
	<defs/>
	<path id="Vector" d="M105.46 36.91C102.35 36.91 99.3 37.08 96.36 37.4L96.36 10.9C96.36 3.74 81.5 0 66.83 0C52.15 0 37.29 3.74 37.29 10.9L37.29 20.79C34.71 20.53 32.12 20.4 29.53 20.39C14.85 20.39 0 24.14 0 31.3L0 86.31C0 93.47 14.85 97.22 29.53 97.22C32.12 97.21 34.71 97.07 37.29 96.82L37.29 98.93C37.29 106.09 52.15 109.83 66.83 109.83C81.51 109.83 96.36 106.09 96.36 98.93L96.36 91.23C99.3 91.56 102.35 91.73 105.46 91.73C120.14 91.73 135 87.98 135 80.82L135 47.81C135 40.65 120.14 36.91 105.46 36.91ZM66.83 94.47C50.54 94.47 41.65 90.15 41.65 87.92L41.65 82.9C47.13 86.15 57.02 87.82 66.83 87.82C76.64 87.82 86.53 86.15 92.01 82.9L92.01 87.92C92.01 90.15 83.12 94.47 66.83 94.47ZM41.65 49.89C47.13 53.14 57.02 54.82 66.83 54.82C76.64 54.82 86.53 53.14 92.01 49.89L92.01 54.91C92.01 57.14 83.12 61.46 66.83 61.46C50.54 61.46 41.65 57.14 41.65 54.91L41.65 49.89ZM41.65 60.89C47.13 64.14 57.02 65.82 66.83 65.82C76.64 65.82 86.53 64.14 92.01 60.89L92.01 65.92C92.01 68.14 83.12 72.47 66.83 72.47C50.54 72.47 41.65 68.14 41.65 65.92L41.65 60.89ZM41.65 71.89C47.13 75.14 57.02 76.82 66.83 76.82C76.64 76.82 86.53 75.14 92.01 71.89L92.01 76.92C92.01 79.14 83.12 83.47 66.83 83.47C50.54 83.47 41.65 79.14 41.65 76.92L41.65 71.89ZM66.83 50.46C50.54 50.46 41.65 46.13 41.65 43.91L41.65 38.89C47.13 42.14 57.02 43.81 66.83 43.81C76.64 43.81 86.53 42.14 92.01 38.89L92.01 43.91C92.01 46.13 83.12 50.46 66.83 50.46ZM66.83 39.46C50.54 39.46 41.65 35.13 41.65 32.91L41.65 27.88C47.13 31.13 57.02 32.81 66.83 32.81C76.64 32.81 86.53 31.13 92.01 27.88L92.01 32.91C92.01 35.13 83.12 39.46 66.83 39.46ZM66.83 28.45C50.54 28.45 41.65 24.13 41.65 21.9L41.65 16.89C41.69 16.91 41.74 16.93 41.78 16.96C42.05 17.12 42.34 17.27 42.64 17.43L42.75 17.49C43.09 17.66 43.45 17.83 43.82 17.99L44.05 18.09C44.39 18.23 44.73 18.37 45.08 18.51L45.22 18.56C50.89 20.71 58.88 21.81 66.83 21.81C74.78 21.81 82.78 20.71 88.44 18.56L88.56 18.51C88.92 18.38 89.27 18.23 89.61 18.09L89.83 18C90.2 17.83 90.57 17.66 90.91 17.49L91.01 17.44C91.31 17.28 91.6 17.12 91.88 16.96L92.01 16.89L92.01 21.91C92.01 24.13 83.12 28.45 66.83 28.45ZM66.83 4.35C83.12 4.35 92.01 8.68 92.01 10.9C92.01 13.12 83.12 17.45 66.83 17.45C50.54 17.45 41.65 13.12 41.65 10.9C41.65 8.68 50.54 4.35 66.83 4.35ZM29.53 24.75C32.16 24.75 34.76 24.87 37.29 25.12L37.29 37.44C36.65 37.5 36.01 37.57 35.36 37.61C34.91 37.65 34.47 37.69 34.01 37.71C32.52 37.8 31.02 37.84 29.53 37.85C25.46 37.85 21.85 37.58 18.72 37.14C9.35 35.81 4.35 32.96 4.35 31.3C4.35 29.07 13.24 24.75 29.53 24.75ZM4.35 37.28C4.38 37.3 4.41 37.32 4.44 37.33C4.83 37.56 5.23 37.77 5.66 37.98L5.88 38.09C6.33 38.31 6.8 38.52 7.27 38.71C7.75 38.9 8.26 39.09 8.78 39.27L9.06 39.36C9.56 39.53 10.08 39.7 10.61 39.85L10.92 39.94C11.48 40.09 12.05 40.25 12.64 40.39L12.7 40.4C13.31 40.55 13.93 40.68 14.56 40.81L14.71 40.84C15.36 40.97 16.01 41.09 16.68 41.2L16.84 41.22C20.83 41.87 25.18 42.2 29.53 42.2C29.64 42.2 29.74 42.19 29.85 42.19C31.39 42.19 32.94 42.14 34.48 42.05L34.81 42.04C35.64 41.99 36.47 41.92 37.3 41.85L37.3 48.44C34.72 48.71 32.13 48.85 29.54 48.86C13.24 48.86 4.35 44.52 4.35 42.3L4.35 37.28L4.35 37.28ZM4.35 48.28C9.83 51.53 19.72 53.21 29.54 53.21C32.19 53.21 34.77 53.05 37.29 52.82L37.29 59.45C34.72 59.72 32.13 59.85 29.54 59.86C13.24 59.86 4.35 55.53 4.35 53.3L4.35 48.28ZM4.35 59.28C9.83 62.54 19.72 64.22 29.54 64.22C32.19 64.22 34.77 64.06 37.29 63.82L37.29 70.45C34.72 70.72 32.13 70.86 29.54 70.87C13.24 70.87 4.35 66.53 4.35 64.3L4.35 59.28ZM4.35 70.29C9.83 73.54 19.72 75.22 29.54 75.22C32.19 75.22 34.77 75.06 37.29 74.82L37.29 81.46C34.72 81.72 32.13 81.86 29.54 81.87C13.24 81.87 4.35 77.53 4.35 75.31L4.35 70.29ZM29.53 92.86C13.24 92.86 4.35 88.54 4.35 86.31L4.35 81.29C9.83 84.54 19.72 86.22 29.54 86.22C32.19 86.22 34.77 86.06 37.29 85.83L37.29 92.49C34.71 92.74 32.12 92.87 29.53 92.86ZM66.83 105.48C50.54 105.48 41.65 101.15 41.65 98.93L41.65 93.9C47.13 97.15 57.02 98.83 66.83 98.83C76.64 98.83 86.53 97.15 92.01 93.9L92.01 98.93C92.01 101.15 83.12 105.48 66.83 105.48ZM105.46 87.37C102.34 87.37 99.29 87.2 96.36 86.86L96.36 80.24C99.28 80.55 102.33 80.72 105.45 80.72C115.27 80.72 125.16 79.04 130.64 75.8L130.64 80.82C130.64 83.04 121.75 87.37 105.46 87.37ZM105.45 76.36C102.32 76.36 99.27 76.18 96.36 75.85L96.36 69.23C99.28 69.55 102.33 69.72 105.45 69.72C115.27 69.72 125.16 68.04 130.64 64.79L130.64 69.82C130.64 72.04 121.75 76.36 105.45 76.36ZM105.45 65.36C102.32 65.36 99.27 65.18 96.36 64.84L96.36 58.23C96.42 58.24 96.49 58.24 96.55 58.25C96.78 58.27 97.03 58.29 97.26 58.31C97.87 58.37 98.47 58.43 99.09 58.47C99.52 58.51 99.96 58.53 100.4 58.56C101.35 58.61 102.31 58.65 103.27 58.68L103.78 58.69C104.34 58.7 104.9 58.72 105.46 58.72C113.64 58.72 121.87 57.55 127.56 55.28L127.61 55.26C128.12 55.06 128.6 54.84 129.07 54.62L129.29 54.52C129.72 54.3 130.14 54.08 130.54 53.85C130.57 53.83 130.61 53.81 130.64 53.8L130.64 58.82C130.64 61.04 121.75 65.36 105.45 65.36ZM105.46 54.36C104.06 54.36 102.68 54.31 101.31 54.24C101.05 54.23 100.78 54.22 100.52 54.2C99.22 54.13 97.93 54.01 96.64 53.87L96.36 53.84L96.36 41.78C99.38 41.43 102.42 41.26 105.46 41.26C121.76 41.26 130.64 45.59 130.64 47.81C130.64 50.03 121.75 54.36 105.46 54.36Z" fill="#1D3484" fill-opacity="1.000000" fill-rule="nonzero"/>
</svg>
